# xmcd CD database file
#
# Track frame offsets:
#	182
#	22207
#	45782
#	66682
#	88885
#	110470
#	132675
#	153290
#	175735
#
# Disc length: 2605 seconds
#
# Revision: 0
# Processed by: cddbd v1.5.1PL2 Copyright (c) Steve Scherf et al.
# Submitted via: ACXtractor (MTCDDB.DLL V2003.04.16)
#
DISCID=7c0a2b09
DTITLE=Salsa - Marc Anthony - Todo A Su Tiempo
DYEAR=1999
DGENRE=Rock
TTITLE0=Se me sigue olvidando
TTITLE1=Te conozco bien
TTITLE2=Hasta ayer
TTITLE3=Nadie como ella
TTITLE4=Te amare
TTITLE5=Llegaste a mi
TTITLE6=Y sigues siendo tu
TTITLE7=Por amor se da todo
TTITLE8=Vieja mesa
EXTD=YEAR: 1999 ID3G:  17
EXTT0=
EXTT1=
EXTT2=
EXTT3=
EXTT4=
EXTT5=
EXTT6=
EXTT7=
EXTT8=
PLAYORDER=
